<svg data-logo="logo" xmlns="http://www.w3.org/2000/svg" viewBox="0 0 186 43">
        <g style="opacity: 1;" id="logogram" transform="translate(0, 1) rotate(0)"><path d="M0.452637 20.81C0.452637 9.76427 9.40694 0.809967 20.4526 0.809967H46.7026C57.7484 0.809967 66.7026 9.76427 66.7026 20.81V40.81H20.4526C9.40694 40.81 0.452637 31.8557 0.452637 20.81Z" fill="#F4F4F4"></path><path d="M46.7026 8.30997H20.4526C13.5491 8.30997 7.95264 13.9064 7.95264 20.81C7.95264 27.7135 13.5491 33.31 20.4526 33.31H46.7026C53.6062 33.31 59.2026 27.7135 59.2026 20.81C59.2026 13.9064 53.6062 8.30997 46.7026 8.30997Z" fill="#1D546C "></path><path d="M20.4526 27.06C23.9044 27.06 26.7026 24.2617 26.7026 20.81C26.7026 17.3582 23.9044 14.56 20.4526 14.56C17.0009 14.56 14.2026 17.3582 14.2026 20.81C14.2026 24.2617 17.0009 27.06 20.4526 27.06Z" fill="black"></path><path d="M17.9526 19.56C18.643 19.56 19.2026 19.0003 19.2026 18.31C19.2026 17.6196 18.643 17.06 17.9526 17.06C17.2623 17.06 16.7026 17.6196 16.7026 18.31C16.7026 19.0003 17.2623 19.56 17.9526 19.56Z" fill="white"></path><path d="M47.9526 27.06C51.4044 27.06 54.2026 24.2617 54.2026 20.81C54.2026 17.3582 51.4044 14.56 47.9526 14.56C44.5009 14.56 41.7026 17.3582 41.7026 20.81C41.7026 24.2617 44.5009 27.06 47.9526 27.06Z" fill="black"></path><path d="M45.4526 19.56C46.143 19.56 46.7026 19.0003 46.7026 18.31C46.7026 17.6196 46.143 17.06 45.4526 17.06C44.7623 17.06 44.2026 17.6196 44.2026 18.31C44.2026 19.0003 44.7623 19.56 45.4526 19.56Z" fill="white"></path></g>
        <g style="opacity: 1;" id="logotype" transform="translate(73, 1.5)"><path fill="#F4F4F4" d="M13.49 33L8.31 33L8.31 7.54L16.31 7.54L20.44 19.23Q20.70 20.05 21.03 21.34Q21.36 22.64 21.71 24.15Q22.05 25.65 22.35 27.07Q22.65 28.49 22.83 29.53L22.83 29.53L21.83 29.53Q22.01 28.51 22.31 27.10Q22.61 25.69 22.95 24.18Q23.29 22.68 23.63 21.36Q23.96 20.05 24.22 19.23L24.22 19.23L28.29 7.54L36.32 7.54L36.32 33L31.07 33L31.07 20.99Q31.07 20.17 31.10 18.92Q31.14 17.67 31.17 16.23Q31.21 14.78 31.24 13.32Q31.28 11.86 31.29 10.56L31.29 10.56L31.62 10.56Q31.29 11.98 30.90 13.49Q30.51 15.00 30.11 16.42Q29.70 17.84 29.34 19.03Q28.99 20.22 28.73 20.99L28.73 20.99L24.51 33L20.12 33L15.83 20.99Q15.57 20.22 15.21 19.05Q14.85 17.88 14.45 16.46Q14.05 15.04 13.64 13.53Q13.23 12.01 12.85 10.56L12.85 10.56L13.26 10.56Q13.28 11.79 13.31 13.24Q13.35 14.70 13.39 16.16Q13.43 17.62 13.46 18.88Q13.49 20.13 13.49 20.99L13.49 20.99L13.49 33ZM47.15 33.38L47.15 33.38Q44.23 33.38 42.11 32.18Q39.99 30.98 38.85 28.78Q37.72 26.57 37.72 23.55L37.72 23.55Q37.72 20.59 38.84 18.37Q39.97 16.15 42.04 14.90Q44.11 13.65 46.89 13.65L46.89 13.65Q48.77 13.65 50.40 14.25Q52.02 14.85 53.25 16.06Q54.48 17.26 55.17 19.07Q55.87 20.88 55.87 23.34L55.87 23.34L55.87 24.78L39.82 24.78L39.82 21.57L53.35 21.57L50.96 22.42Q50.96 20.93 50.51 19.83Q50.06 18.73 49.16 18.12Q48.26 17.52 46.93 17.52L46.93 17.52Q45.61 17.52 44.68 18.13Q43.75 18.75 43.27 19.80Q42.79 20.85 42.79 22.20L42.79 22.20L42.79 24.47Q42.79 26.13 43.35 27.26Q43.90 28.39 44.90 28.95Q45.90 29.51 47.24 29.51L47.24 29.51Q48.14 29.51 48.88 29.26Q49.61 29.00 50.13 28.50Q50.65 27.99 50.93 27.26L50.93 27.26L55.58 28.13Q55.11 29.70 53.97 30.89Q52.82 32.08 51.11 32.73Q49.39 33.38 47.15 33.38ZM65.72 33.38L65.72 33.38Q62.80 33.38 60.68 32.18Q58.56 30.98 57.43 28.78Q56.29 26.57 56.29 23.55L56.29 23.55Q56.29 20.59 57.42 18.37Q58.55 16.15 60.62 14.90Q62.68 13.65 65.47 13.65L65.47 13.65Q67.35 13.65 68.97 14.25Q70.60 14.85 71.83 16.06Q73.06 17.26 73.75 19.07Q74.44 20.88 74.44 23.34L74.44 23.34L74.44 24.78L58.39 24.78L58.39 21.57L71.93 21.57L69.54 22.42Q69.54 20.93 69.08 19.83Q68.63 18.73 67.73 18.12Q66.84 17.52 65.50 17.52L65.50 17.52Q64.19 17.52 63.26 18.13Q62.32 18.75 61.85 19.80Q61.37 20.85 61.37 22.20L61.37 22.20L61.37 24.47Q61.37 26.13 61.92 27.26Q62.48 28.39 63.48 28.95Q64.48 29.51 65.81 29.51L65.81 29.51Q66.72 29.51 67.45 29.26Q68.19 29.00 68.71 28.50Q69.23 27.99 69.50 27.26L69.50 27.26L74.15 28.13Q73.69 29.70 72.54 30.89Q71.40 32.08 69.68 32.73Q67.96 33.38 65.72 33.38ZM73.82 13.89L85.15 13.89L85.15 17.81L73.82 17.81L73.82 13.89ZM76.46 27.86L76.46 9.35L81.58 9.35L81.58 27.41Q81.58 28.32 81.98 28.75Q82.39 29.19 83.33 29.19L83.33 29.19Q83.62 29.19 84.15 29.11Q84.68 29.04 84.95 28.97L84.95 28.97L85.68 32.81Q84.83 33.07 83.98 33.17Q83.14 33.27 82.37 33.27L82.37 33.27Q79.50 33.27 77.98 31.87Q76.46 30.47 76.46 27.86L76.46 27.86ZM86.21 7.54L91.34 7.54L91.34 33L86.21 33L86.21 7.54ZM93.28 39.77L93.28 39.77L94.46 35.91L95.10 36.06Q96.12 36.33 96.92 36.21Q97.73 36.09 98.22 35.56Q98.70 35.03 98.80 34.08L98.80 34.08L98.94 33.05L91.76 13.89L97.22 13.89L100.43 23.81Q101.01 25.69 101.38 27.57Q101.74 29.45 102.22 31.50L102.22 31.50L101.03 31.50Q101.49 29.45 101.95 27.56Q102.41 25.67 103.03 23.81L103.03 23.81L106.38 13.89L111.76 13.89L103.64 35.26Q103.06 36.79 102.15 37.92Q101.25 39.05 99.90 39.67Q98.55 40.28 96.63 40.28L96.63 40.28Q95.61 40.28 94.72 40.14Q93.83 39.99 93.28 39.77Z"></path></g>
        
      </svg>